<?xml version="1.0" encoding="utf-8"?>
<!-- Generator: Adobe Illustrator 23.0.1, SVG Export Plug-In . SVG Version: 6.00 Build 0)  -->
<svg version="1.1" id="Слой_1" xmlns="http://www.w3.org/2000/svg" xmlns:xlink="http://www.w3.org/1999/xlink" x="0px" y="0px"
	 viewBox="0 0 100 100" style="enable-background:new 0 0 100 100;" xml:space="preserve">
<style type="text/css">
	.st0{fill:#DDE7B1;}
	.st1{fill:#FFFFFF;}
</style>
<g>
	<g>
		<g>
			<g>
				<g>
					<g>
						<g>
							<path class="st0" d="M72.3,49.3c0,0.5-0.4,0.9-0.9,0.9H50c-0.5,0-0.9-0.4-0.9-0.9s0.4-0.9,0.9-0.9h21.4
								C71.9,48.4,72.3,48.8,72.3,49.3z"/>
						</g>
					</g>
				</g>
			</g>
		</g>
	</g>
</g>
<g>
	<g>
		<g>
			<g>
				<g>
					<g>
						<g>
							<path class="st0" d="M50.9,18.4v30c0,0.5-0.4,0.9-0.9,0.9s-0.9-0.4-0.9-0.9v-30c0-0.5,0.4-0.9,0.9-0.9S50.9,17.9,50.9,18.4z"
								/>
						</g>
					</g>
				</g>
			</g>
		</g>
	</g>
</g>
<g>
	<g>
		<g>
			<g>
				<g>
					<g>
						<g>
							<g>
								<path class="st0" d="M16.8,69.9c0,0.2-0.1,0.5-0.3,0.6l-4,4c-0.4,0.4-0.9,0.4-1.3,0c-0.4-0.4-0.4-0.9,0-1.3l4-4
									c0.4-0.4,0.9-0.4,1.3,0C16.8,69.5,16.8,69.7,16.8,69.9z"/>
							</g>
						</g>
					</g>
				</g>
			</g>
		</g>
	</g>
	<g>
		<g>
			<g>
				<g>
					<g>
						<g>
							<g>
								<path class="st0" d="M33.1,84.7c0,0.1,0,0.3-0.1,0.4l-2.6,5.1c-0.2,0.4-0.8,0.6-1.2,0.4c-0.4-0.2-0.6-0.8-0.4-1.2l2.6-5.1
									c0.2-0.4,0.8-0.6,1.2-0.4C32.9,84.1,33.1,84.4,33.1,84.7z"/>
							</g>
						</g>
					</g>
				</g>
			</g>
		</g>
	</g>
	<g>
		<g>
			<g>
				<g>
					<g>
						<g>
							<g>
								<path class="st0" d="M16.8,28.3c0,0.2-0.1,0.5-0.3,0.6c-0.4,0.4-0.9,0.4-1.3,0l-4-4c-0.4-0.4-0.4-0.9,0-1.3s0.9-0.4,1.3,0
									l4,4C16.8,27.9,16.8,28.1,16.8,28.3z"/>
							</g>
						</g>
					</g>
				</g>
			</g>
		</g>
	</g>
	<g>
		<g>
			<g>
				<g>
					<g>
						<g>
							<g>
								<path class="st0" d="M33.1,13.5c0,0.3-0.2,0.7-0.5,0.8c-0.4,0.2-1,0.1-1.2-0.4l-2.6-5.1c-0.2-0.4,0-1,0.4-1.2s1-0.1,1.2,0.4
									l2.6,5.1C33.1,13.3,33.1,13.4,33.1,13.5z"/>
							</g>
						</g>
					</g>
				</g>
			</g>
		</g>
	</g>
	<g>
		<g>
			<g>
				<g>
					<g>
						<g>
							<g>
								<path class="st0" d="M88.4,74c0,0.2-0.1,0.5-0.3,0.6c-0.4,0.4-0.9,0.4-1.3,0l-4-4c-0.4-0.4-0.4-0.9,0-1.3s0.9-0.4,1.3,0l4,4
									C88.4,73.5,88.4,73.7,88.4,74z"/>
							</g>
						</g>
					</g>
				</g>
			</g>
		</g>
	</g>
	<g>
		<g>
			<g>
				<g>
					<g>
						<g>
							<g>
								<path class="st0" d="M70.3,89.8c0,0.3-0.2,0.7-0.5,0.8c-0.4,0.2-1,0.1-1.2-0.4L66,85.1c-0.2-0.4,0-1,0.4-1.2s1-0.1,1.2,0.4
									l2.6,5.1C70.2,89.5,70.3,89.7,70.3,89.8z"/>
							</g>
						</g>
					</g>
				</g>
			</g>
		</g>
	</g>
	<g>
		<g>
			<g>
				<g>
					<g>
						<g>
							<g>
								<path class="st0" d="M88.4,24.3c0,0.2-0.1,0.5-0.3,0.6l-4,4c-0.4,0.4-0.9,0.4-1.3,0s-0.4-0.9,0-1.3l4-4
									c0.4-0.4,0.9-0.4,1.3,0C88.4,23.8,88.4,24.1,88.4,24.3z"/>
							</g>
						</g>
					</g>
				</g>
			</g>
		</g>
	</g>
	<g>
		<g>
			<g>
				<g>
					<g>
						<g>
							<g>
								<path class="st0" d="M70.3,8.5c0,0.1,0,0.3-0.1,0.4L67.6,14c-0.2,0.4-0.8,0.6-1.2,0.4c-0.4-0.2-0.6-0.8-0.4-1.2L68.5,8
									c0.2-0.4,0.8-0.6,1.2-0.4C70.1,7.8,70.3,8.1,70.3,8.5z"/>
							</g>
						</g>
					</g>
				</g>
			</g>
		</g>
	</g>
	<g>
		<g>
			<g>
				<g>
					<g>
						<g>
							<g>
								<path class="st0" d="M50.9,4.2v5.7c0,0.5-0.4,0.9-0.9,0.9s-0.9-0.4-0.9-0.9V4.2c0-0.5,0.4-0.9,0.9-0.9
									C50.5,3.2,50.9,3.7,50.9,4.2z"/>
							</g>
						</g>
					</g>
				</g>
			</g>
		</g>
	</g>
	<g>
		<g>
			<g>
				<g>
					<g>
						<g>
							<g>
								<path class="st0" d="M50.9,88.8v5.7c0,0.5-0.4,0.9-0.9,0.9s-0.9-0.4-0.9-0.9v-5.7c0-0.5,0.4-0.9,0.9-0.9
									S50.9,88.3,50.9,88.8z"/>
							</g>
						</g>
					</g>
				</g>
			</g>
		</g>
	</g>
</g>
<g>
	<g>
		<g>
			<g>
				<g>
					<g>
						<g>
							<circle class="st1" cx="50" cy="49.3" r="3.2"/>
						</g>
					</g>
				</g>
			</g>
		</g>
	</g>
</g>
<g>
	<g>
		<g>
			<g>
				<g>
					<g>
						<g>
							<path class="st1" d="M5.1,42.3c-0.1,0-0.1,0-0.2,0c-0.5-0.1-0.9-0.6-0.8-1.2C7.9,18.7,27.2,2.5,50,2.5
								c20.8,0,39.2,14,44.8,34c0.1,0.5-0.2,1.1-0.7,1.2c-0.5,0.1-1.1-0.2-1.2-0.7C87.5,17.8,69.9,4.5,50,4.5
								C28.2,4.5,9.7,20,6.1,41.4C6,41.9,5.6,42.3,5.1,42.3z"/>
						</g>
					</g>
				</g>
			</g>
		</g>
	</g>
	<g>
		<g>
			<g>
				<g>
					<g>
						<g>
							<path class="st1" d="M50,96.2c-22.8,0-42.6-17-46-39.5c-0.1-0.5,0.3-1.1,0.8-1.1c0.5-0.1,1.1,0.3,1.1,0.8
								c3.2,21.6,22.2,37.8,44,37.8c21.6,0,40-15.4,43.8-36.6c0.1-0.5,0.6-0.9,1.2-0.8c0.5,0.1,0.9,0.6,0.8,1.2
								C91.8,80.1,72.5,96.2,50,96.2z"/>
						</g>
					</g>
				</g>
			</g>
		</g>
	</g>
</g>
<g>
	<g>
		<g>
			<g>
				<g>
					<g>
						<path class="st0" d="M93.8,55.5l-4.6,4.6c-0.2,0.2-0.1,0.7,0.3,0.7h9.1c0.4,0,0.5-0.4,0.3-0.7l-4.6-4.6
							C94.2,55.4,94,55.4,93.8,55.5z"/>
					</g>
				</g>
			</g>
		</g>
	</g>
</g>
<g>
	<g>
		<g>
			<g>
				<g>
					<g>
						<path class="st0" d="M1.1,38.9l4.4,4.4c0.2,0.2,0.5,0.2,0.7,0l4.4-4.4c0.3-0.3,0.1-0.8-0.3-0.8H1.4C1,38.1,0.8,38.6,1.1,38.9z
							"/>
					</g>
				</g>
			</g>
		</g>
	</g>
</g>
</svg>
