<?xml version="1.0" encoding="utf-8"?>
<!-- Generator: Adobe Illustrator 23.0.1, SVG Export Plug-In . SVG Version: 6.00 Build 0)  -->
<svg version="1.1" id="Слой_1" xmlns="http://www.w3.org/2000/svg" xmlns:xlink="http://www.w3.org/1999/xlink" x="0px" y="0px"
	 viewBox="0 0 100 100" style="enable-background:new 0 0 100 100;" xml:space="preserve">
<style type="text/css">
	.st0{fill:#FFFFFF;}
	.st1{fill:#D9E7AF;}
</style>
<g>
	<g>
		<g>
			<g>
				<g>
					<g>
						<g>
							<circle class="st0" cx="95.4" cy="7.7" r="3.5"/>
						</g>
					</g>
				</g>
			</g>
		</g>
	</g>
</g>
<g>
	<g>
		<g>
			<g>
				<g>
					<g>
						<path class="st0" d="M88.3,85.7H12.1c-0.6,0-1-0.4-1-1V16.9c0-0.6,0.4-1,1-1s1,0.4,1,1v66.8h75.2c0.6,0,1,0.4,1,1
							S88.8,85.7,88.3,85.7z"/>
					</g>
				</g>
			</g>
		</g>
	</g>
</g>
<g>
	<g>
		<g>
			<g>
				<g>
					<g>
						<path class="st1" d="M2.1,95.8c-0.2,0-0.5-0.1-0.7-0.3c-0.4-0.4-0.4-1,0-1.4l28.5-30.2c0.3-0.3,0.8-0.4,1.2-0.2l6.4,3.2
							l10.9-33.5c0.1-0.3,0.3-0.5,0.6-0.6c0.3-0.1,0.6-0.1,0.8,0l13.4,6.8l24.4-25.6c0.4-0.4,1-0.4,1.4,0c0.4,0.4,0.4,1,0,1.4
							L64.1,41.6c-0.3,0.3-0.8,0.4-1.2,0.2l-13-6.6L39,68.6c-0.1,0.3-0.3,0.5-0.6,0.6s-0.6,0.1-0.8,0l-6.7-3.4l-28,29.7
							C2.7,95.7,2.4,95.8,2.1,95.8z"/>
					</g>
				</g>
			</g>
		</g>
	</g>
</g>
</svg>
