<?xml version="1.0" encoding="utf-8"?>
<!-- Generator: Adobe Illustrator 23.0.1, SVG Export Plug-In . SVG Version: 6.00 Build 0)  -->
<svg version="1.1" id="Слой_1" xmlns="http://www.w3.org/2000/svg" xmlns:xlink="http://www.w3.org/1999/xlink" x="0px" y="0px"
	 viewBox="0 0 100 100" style="enable-background:new 0 0 100 100;" xml:space="preserve">
<style type="text/css">
	.st0{fill:#D9E7AF;}
	.st1{fill:#FFFFFF;}
</style>
<g>
	<g>
		<g>
			<g>
				<g>
					<g>
						<g>
							<g>
								<g>
									<path class="st0" d="M50,9.5c-0.5,0-1-0.4-1-1v-6c0-0.5,0.4-1,1-1s1,0.4,1,1v6C51,9,50.5,9.5,50,9.5z"/>
								</g>
							</g>
						</g>
					</g>
				</g>
			</g>
		</g>
	</g>
	<g>
		<g>
			<g>
				<g>
					<g>
						<g>
							<g>
								<g>
									<path class="st0" d="M20.1,23c-0.1,0-0.3-0.1-0.4-0.2l-4.3-4.1c-0.4-0.4-0.4-1,0-1.4s1-0.4,1.4,0l4.3,4.1
										c0.4,0.4,0.4,1,0,1.4C20.8,23,20.4,23.1,20.1,23z"/>
								</g>
							</g>
						</g>
					</g>
				</g>
			</g>
		</g>
	</g>
	<g>
		<g>
			<g>
				<g>
					<g>
						<g>
							<g>
								<g>
									<path class="st0" d="M85.6,83.5c-0.1,0-0.3-0.1-0.4-0.2l-4.3-4.1c-0.4-0.4-0.4-1,0-1.4s1-0.4,1.4,0l4.3,4.1
										c0.4,0.4,0.4,1,0,1.4C86.3,83.5,85.9,83.6,85.6,83.5z"/>
								</g>
							</g>
						</g>
					</g>
				</g>
			</g>
		</g>
	</g>
	<g>
		<g>
			<g>
				<g>
					<g>
						<g>
							<g>
								<g>
									<path class="st0" d="M77.2,19.1c0-0.1,0.1-0.3,0.2-0.4l4.1-4.3c0.4-0.4,1-0.4,1.4,0s0.4,1,0,1.4l-4.1,4.3
										c-0.4,0.4-1,0.4-1.4,0C77.2,19.8,77.1,19.5,77.2,19.1z"/>
								</g>
							</g>
						</g>
					</g>
				</g>
			</g>
		</g>
	</g>
	<g>
		<g>
			<g>
				<g>
					<g>
						<g>
							<g>
								<g>
									<path class="st0" d="M16.6,84.7c0-0.1,0.1-0.3,0.2-0.4l4.1-4.3c0.4-0.4,1-0.4,1.4,0s0.4,1,0,1.4l-4.1,4.3
										c-0.4,0.4-1,0.4-1.4,0C16.6,85.4,16.5,85,16.6,84.7z"/>
								</g>
							</g>
						</g>
					</g>
				</g>
			</g>
		</g>
	</g>
	<g>
		<g>
			<g>
				<g>
					<g>
						<g>
							<g>
								<g>
									<path class="st0" d="M50,98.5c-0.5,0-1-0.4-1-1v-6c0-0.5,0.4-1,1-1s1,0.4,1,1v6C51,98,50.5,98.5,50,98.5z"/>
								</g>
							</g>
						</g>
					</g>
				</g>
			</g>
		</g>
	</g>
	<g>
		<g>
			<g>
				<g>
					<g>
						<g>
							<g>
								<g>
									<path class="st0" d="M97.5,51h-6c-0.5,0-1-0.4-1-1c0-0.5,0.4-1,1-1h6c0.5,0,1,0.4,1,1C98.5,50.5,98,51,97.5,51z"/>
								</g>
							</g>
						</g>
					</g>
				</g>
			</g>
		</g>
	</g>
	<g>
		<g>
			<g>
				<g>
					<g>
						<g>
							<g>
								<g>
									<path class="st0" d="M8.5,51h-6c-0.5,0-1-0.4-1-1c0-0.5,0.4-1,1-1h6c0.5,0,1,0.4,1,1C9.5,50.5,9,51,8.5,51z"/>
								</g>
							</g>
						</g>
					</g>
				</g>
			</g>
		</g>
	</g>
</g>
<g>
	<g>
		<g>
			<g>
				<g>
					<g>
						<g>
							<path class="st1" d="M50,91.6C27.1,91.6,8.4,72.9,8.4,50S27.1,8.4,50,8.4S91.6,27.1,91.6,50S72.9,91.6,50,91.6z M50,10.5
								c-21.8,0-39.5,17.7-39.5,39.5S28.2,89.5,50,89.5S89.5,71.8,89.5,50S71.8,10.5,50,10.5z"/>
						</g>
					</g>
				</g>
			</g>
		</g>
	</g>
</g>
<g>
	<path class="st0" d="M39.6,26.2c0.1,0,0.3,0,0.4-0.1l0,0c0.6-0.2,0.9-0.9,0.6-1.5L39.2,21c-0.2-0.6-0.9-0.9-1.5-0.6
		c-0.3,0.1-0.5,0.3-0.6,0.6s-0.1,0.6,0,0.9l1.4,3.6C38.8,25.9,39.2,26.2,39.6,26.2z"/>
	<path class="st0" d="M25.5,39.3l-3.6-1.5c-0.3-0.1-0.6-0.1-0.9,0s-0.5,0.3-0.6,0.6s-0.1,0.6,0,0.9c0.1,0.3,0.3,0.5,0.6,0.6l3.6,1.5
		c0.1,0.1,0.3,0.1,0.4,0.1h0.1l0,0c0.4,0,0.8-0.3,0.9-0.7c0.1-0.3,0.1-0.6,0-0.9C26,39.6,25.8,39.4,25.5,39.3z M25.1,40.9L25.1,40.9
		L25.1,40.9L25.1,40.9z"/>
	<path class="st0" d="M80,60.5c-0.1-0.3-0.3-0.5-0.6-0.6l-3.6-1.5c-0.3-0.1-0.6-0.1-0.9,0s-0.5,0.3-0.6,0.6s-0.1,0.6,0,0.9
		c0.1,0.3,0.3,0.5,0.6,0.6l3.6,1.5c0.1,0.1,0.3,0.1,0.4,0.1H79c0.4,0,0.8-0.3,0.9-0.7C80.1,61.1,80.1,60.8,80,60.5z"/>
	<path class="st0" d="M58.7,25.9C58.8,26,59,26,59.1,26s0.3,0,0.4-0.1c0.3-0.1,0.5-0.3,0.6-0.6l1.5-3.6c0.1-0.3,0.1-0.6,0-0.9
		s-0.3-0.5-0.6-0.6s-0.6-0.1-0.9,0c-0.3,0.1-0.5,0.3-0.6,0.6L58,24.4c0,0.2,0,0.4,0,0.6l0,0C58.1,25.4,58.3,25.8,58.7,25.9z
		 M58.5,24.9L58.5,24.9L58.5,24.9L58.5,24.9z"/>
	<path class="st0" d="M40.3,74.1c-0.3-0.1-0.6-0.1-0.9,0c-0.3,0.1-0.5,0.3-0.6,0.6l-1.5,3.6c-0.1,0.2-0.1,0.3-0.1,0.5
		c0,0.4,0.3,0.8,0.7,0.9c0.1,0.1,0.3,0.1,0.4,0.1c0.1,0,0.3,0,0.4-0.1c0.3-0.1,0.5-0.3,0.6-0.6l1.5-3.6c0.1-0.3,0.1-0.6,0-0.9
		C40.8,74.4,40.6,74.2,40.3,74.1z"/>
	<path class="st0" d="M60.6,74.5c-0.2-0.6-0.9-0.9-1.5-0.6c-0.3,0.1-0.5,0.3-0.6,0.6c-0.1,0.3-0.1,0.6,0,0.9l1.4,3.6
		c0.1,0.3,0.3,0.5,0.6,0.6c0.1,0.1,0.3,0.1,0.4,0.1c0.1,0,0.3,0,0.4-0.1l0,0c0.3-0.1,0.5-0.3,0.6-0.6c0.1-0.3,0.1-0.6,0-0.9
		L60.6,74.5z"/>
	<path class="st0" d="M74.9,41.1l3.6-1.4l0,0c0.3-0.1,0.5-0.3,0.6-0.6s0.1-0.6,0-0.9c-0.2-0.6-0.9-0.9-1.5-0.6L74.1,39
		c-0.3,0.1-0.5,0.3-0.6,0.6s-0.1,0.6,0,0.9c0.2,0.4,0.6,0.7,1,0.7C74.6,41.2,74.8,41.1,74.9,41.1z"/>
	<path class="st0" d="M24.3,58.9l-3.6,1.4c-0.6,0.2-0.9,0.9-0.6,1.5c0.2,0.4,0.6,0.7,1,0.7c0.1,0,0.3,0,0.4-0.1l3.6-1.4
		c0.6-0.2,0.9-0.9,0.6-1.5C25.5,58.9,24.8,58.7,24.3,58.9z"/>
</g>
<g>
	<g>
		<g>
			<g>
				<g>
					<g>
						<g>
							<path class="st1" d="M50,76.6c-3.6,0-7.1-0.7-10.5-2.2c-6.5-2.8-11.6-8-14.2-14.6S22.8,46,25.6,39.5s8-11.6,14.6-14.2l0,0
								c6.6-2.6,13.8-2.5,20.3,0.3s11.6,8,14.2,14.6s2.5,13.8-0.3,20.3c-2.8,6.5-8,11.6-14.6,14.2C56.7,76,53.3,76.6,50,76.6z
								 M50,25.4c-3.1,0-6.2,0.6-9.1,1.8l0,0c-6.1,2.4-10.9,7.1-13.5,13.1S24.7,53,27.1,59.1S34.2,70,40.2,72.6s12.7,2.7,18.8,0.3
								c6.1-2.4,10.9-7.1,13.5-13.1s2.7-12.7,0.3-18.8c-2.4-6.1-7.1-10.9-13.1-13.5C56.6,26.1,53.3,25.4,50,25.4z"/>
						</g>
					</g>
				</g>
			</g>
		</g>
	</g>
</g>
<g>
	<g>
		<g>
			<g>
				<g>
					<g>
						<g>
							<circle class="st0" cx="50" cy="50" r="3.7"/>
						</g>
					</g>
				</g>
			</g>
		</g>
	</g>
</g>
</svg>
