<?xml version="1.0" encoding="utf-8"?>
<!-- Generator: Adobe Illustrator 23.0.1, SVG Export Plug-In . SVG Version: 6.00 Build 0)  -->
<svg version="1.1" id="Слой_1" xmlns="http://www.w3.org/2000/svg" xmlns:xlink="http://www.w3.org/1999/xlink" x="0px" y="0px"
	 viewBox="0 0 100 100" style="enable-background:new 0 0 100 100;" xml:space="preserve">
<style type="text/css">
	.st0{fill:#FFFFFF;}
	.st1{fill:#D9E7AF;}
</style>
<g>
	<g>
		<g>
			<g>
				<g>
					<g>
						<g>
							<path class="st0" d="M42.3,87.6c-11,0-21.4-4.3-29.2-12.1C5.3,67.6,1,57.3,1,46.2S5.3,24.8,13.1,17
								C20.9,9.1,31.3,4.8,42.3,4.8s21.4,4.3,29.2,12.1c10.4,10.4,14.5,25.7,10.7,40c-0.1,0.5-0.7,0.9-1.2,0.7
								c-0.5-0.1-0.9-0.7-0.7-1.2c3.6-13.6-0.3-28.1-10.2-38C62.7,10.9,52.9,6.8,42.3,6.8c-10.5,0-20.4,4.1-27.8,11.5
								C7.1,25.8,3,35.7,3,46.2S7.1,66.6,14.5,74s17.3,11.5,27.8,11.5S62.7,81.4,70.1,74c0.4-0.4,1-0.4,1.4,0s0.4,1,0,1.4
								C63.8,83.3,53.4,87.6,42.3,87.6z"/>
						</g>
					</g>
				</g>
			</g>
		</g>
	</g>
</g>
<g>
	<g>
		<g>
			<g>
				<g>
					<g>
						<g>
							<path class="st1" d="M42.3,80.1c-18.7,0-33.9-15.2-33.9-33.9s15.2-33.9,33.9-33.9s33.9,15.2,33.9,33.9S61,80.1,42.3,80.1z
								 M42.3,14.3c-17.6,0-31.9,14.3-31.9,31.9s14.3,31.9,31.9,31.9s31.9-14.3,31.9-31.9S59.9,14.3,42.3,14.3z"/>
						</g>
					</g>
				</g>
			</g>
		</g>
	</g>
</g>
<g>
	<g>
		<g>
			<g>
				<g>
					<g>
						<g>
							<circle class="st1" cx="38.3" cy="60.2" r="3.5"/>
						</g>
					</g>
				</g>
			</g>
		</g>
	</g>
</g>
<g>
	<g>
		<g>
			<g>
				<g>
					<g>
						<g>
							<circle class="st0" cx="92.6" cy="63.9" r="3.5"/>
						</g>
					</g>
				</g>
			</g>
		</g>
	</g>
</g>
<g>
	<g>
		<g>
			<g>
				<g>
					<g>
						<path class="st1" d="M96.9,71.7H81.3c-0.3,0-0.6-0.1-0.7-0.3l-9.3-10.3c-0.4-0.4-0.3-1,0.1-1.4s1-0.3,1.4,0.1l9,10H97
							c0.6,0,1,0.4,1,1S97.5,71.7,96.9,71.7z"/>
					</g>
				</g>
			</g>
		</g>
	</g>
</g>
<g>
	<g>
		<g>
			<g>
				<g>
					<g>
						<path class="st1" d="M65.7,68.7c-0.3,0-0.6-0.1-0.8-0.4L57.7,58l-7.4,9.5c-0.2,0.2-0.5,0.4-0.8,0.4H34.8c-0.6,0-1-0.4-1-1
							s0.4-1,1-1h14.1l8-10.1c0.2-0.2,0.5-0.4,0.8-0.4s0.6,0.2,0.8,0.4l8,11.4c0.3,0.5,0.2,1.1-0.2,1.4
							C66.1,68.6,65.9,68.7,65.7,68.7z"/>
					</g>
				</g>
			</g>
		</g>
	</g>
</g>
</svg>
