<?xml version="1.0" encoding="utf-8"?>
<!-- Generator: Adobe Illustrator 23.0.1, SVG Export Plug-In . SVG Version: 6.00 Build 0)  -->
<svg version="1.1" id="Слой_1" xmlns="http://www.w3.org/2000/svg" xmlns:xlink="http://www.w3.org/1999/xlink" x="0px" y="0px"
	 viewBox="0 0 100 100" style="enable-background:new 0 0 100 100;" xml:space="preserve">
<style type="text/css">
	.st0{fill:#FFFFFF;}
	.st1{fill:#D9E7AF;}
</style>
<g>
	<g>
		<g>
			<g>
				<g>
					<g>
						<g>
							<path class="st0" d="M50,96.3C24.5,96.3,3.7,75.5,3.7,50S24.5,3.7,50,3.7S96.3,24.5,96.3,50S75.5,96.3,50,96.3z M50,5.7
								C25.6,5.7,5.7,25.6,5.7,50c0,24.4,19.9,44.3,44.3,44.3S94.3,74.4,94.3,50C94.3,25.6,74.4,5.7,50,5.7z"/>
						</g>
					</g>
				</g>
			</g>
		</g>
	</g>
</g>
<g>
	<g>
		<g>
			<g>
				<g>
					<g>
						<g>
							<g>
								<path class="st0" d="M50,84.8c-10.8,0-21.5-5-28.3-14.4c-7.3-10.1-8.6-23.3-3.5-34.7c0.2-0.5,0.8-0.7,1.3-0.5
									c0.5,0.2,0.7,0.8,0.5,1.3c-4.8,10.7-3.5,23.2,3.3,32.7c10.6,14.7,31.2,18,45.9,7.4c14.7-10.6,18-31.2,7.4-45.9
									s-31.2-18-45.9-7.4c-0.4,0.3-1.1,0.2-1.4-0.2c-0.3-0.4-0.2-1.1,0.2-1.4C45.2,10.5,67,14,78.3,29.6
									C89.5,45.2,86,67,70.4,78.3C64.2,82.7,57.1,84.8,50,84.8z"/>
							</g>
						</g>
					</g>
				</g>
			</g>
		</g>
	</g>
</g>
<g>
	<g>
		<g>
			<g>
				<g>
					<g>
						<g>
							<g>
								<path class="st0" d="M73.8,61.5c-0.1,0-0.3,0-0.4-0.1c-0.5-0.2-0.7-0.8-0.5-1.3c3.6-8.1,2.5-17.6-2.7-24.8
									c-4.5-6.2-11.6-9.9-19.3-10.2c-0.6,0-1-0.5-1-1c0-0.6,0.5-1,1-1c8.3,0.3,15.9,4.3,20.8,11c5.7,7.7,6.8,18,2.9,26.8
									C74.5,61.2,74.2,61.5,73.8,61.5z"/>
							</g>
						</g>
					</g>
				</g>
			</g>
		</g>
	</g>
	<g>
		<g>
			<g>
				<g>
					<g>
						<g>
							<g>
								<path class="st0" d="M50.1,76.9c-1.4,0-2.8-0.1-4.2-0.3c-7.1-1.1-13.4-4.9-17.6-10.7c-2.8-3.8-4.5-8.3-5-12.9
									c-1.1-9.6,3.1-19.1,10.8-24.8l1.2,1.6c-7.2,5.3-11,14.1-10,22.9c0.5,4.3,2.1,8.4,4.7,11.9c3.9,5.4,9.7,8.9,16.3,9.9
									c6.6,1,13.2-0.6,18.6-4.5l1.2,1.6C61.3,75.2,55.8,76.9,50.1,76.9z"/>
							</g>
						</g>
					</g>
				</g>
			</g>
		</g>
	</g>
</g>
<g>
	<g>
		<g>
			<g>
				<g>
					<g>
						<g>
							<g>
								<path class="st0" d="M63.9,63c-0.2,0-0.4-0.1-0.6-0.2c-0.4-0.3-0.5-1-0.2-1.4c3.9-4.9,4.9-11.5,2.6-17.3
									c-1.7-4.3-5-7.8-9.3-9.6c-4.3-1.9-9-2-13.4-0.3c-0.5,0.2-1.1-0.1-1.3-0.6c-0.2-0.5,0.1-1.1,0.6-1.3
									c4.8-1.9,10.1-1.8,14.9,0.3c4.8,2.1,8.4,5.9,10.3,10.7c2.5,6.5,1.4,13.8-2.9,19.3C64.5,62.8,64.2,63,63.9,63z"/>
							</g>
						</g>
					</g>
				</g>
			</g>
		</g>
	</g>
	<g>
		<g>
			<g>
				<g>
					<g>
						<g>
							<g>
								<path class="st0" d="M49.5,69.9c-3.8,0-7.6-1.1-10.9-3.3c-3.3-2.2-5.8-5.4-7.3-9.1c-1.1-2.7-1.5-5.5-1.3-8.4
									c0-0.6,0.5-1,1.1-0.9c0.6,0,1,0.5,0.9,1.1c-0.2,2.6,0.2,5.1,1.2,7.5c1.3,3.3,3.6,6.1,6.5,8.1c4.8,3.2,10.8,3.9,16.1,1.8
									c0.5-0.2,1.1,0.1,1.3,0.6c0.2,0.5-0.1,1.1-0.6,1.3C54.3,69.5,51.9,69.9,49.5,69.9z"/>
							</g>
						</g>
					</g>
				</g>
			</g>
		</g>
	</g>
</g>
<g>
	<g>
		<g>
			<g>
				<g>
					<g>
						<g>
							<g>
								<g>
									<path class="st1" d="M82.9,96.1c-0.3,0-0.6-0.1-0.8-0.4L16.2,5.3c-0.3-0.4-0.2-1.1,0.2-1.4c0.4-0.3,1.1-0.2,1.4,0.2
										l65.9,90.4c0.3,0.4,0.2,1.1-0.2,1.4C83.3,96.1,83.1,96.1,82.9,96.1z"/>
								</g>
							</g>
						</g>
					</g>
				</g>
			</g>
		</g>
	</g>
</g>
</svg>
