<?xml version="1.0" encoding="utf-8"?>
<!-- Generator: Adobe Illustrator 23.0.1, SVG Export Plug-In . SVG Version: 6.00 Build 0)  -->
<svg version="1.1" id="Слой_1" xmlns="http://www.w3.org/2000/svg" xmlns:xlink="http://www.w3.org/1999/xlink" x="0px" y="0px"
	 viewBox="0 0 100 100" style="enable-background:new 0 0 100 100;" xml:space="preserve">
<style type="text/css">
	.st0{fill:#FFFFFF;}
	.st1{fill:#D9E7AF;}
</style>
<g>
	<g>
		<g>
			<g>
				<g>
					<g>
						<g>
							<path class="st0" d="M50,96.2C24.5,96.2,3.8,75.5,3.8,50C3.8,24.5,24.5,3.8,50,3.8S96.2,24.5,96.2,50
								C96.2,75.5,75.5,96.2,50,96.2z M50,5.8C25.6,5.8,5.8,25.6,5.8,50S25.6,94.2,50,94.2S94.2,74.4,94.2,50S74.4,5.8,50,5.8z"/>
						</g>
					</g>
				</g>
			</g>
		</g>
	</g>
</g>
<g>
	<g>
		<g>
			<g>
				<g>
					<g>
						<g>
							<path class="st0" d="M50,84.7c-19.1,0-34.7-15.6-34.7-34.7c0-19.1,15.6-34.7,34.7-34.7S84.7,30.9,84.7,50
								C84.7,69.1,69.1,84.7,50,84.7z M50,17.3C32,17.3,17.3,32,17.3,50C17.3,68,32,82.7,50,82.7S82.7,68,82.7,50
								C82.7,32,68,17.3,50,17.3z"/>
						</g>
					</g>
				</g>
			</g>
		</g>
	</g>
</g>
<g>
	<g>
		<g>
			<g>
				<g>
					<g>
						<g>
							<path class="st1" d="M50,65.6c-5.7,0-10.4-4.7-10.4-10.4c0-5.4,9.2-19.7,9.6-20.3c0.4-0.6,1.3-0.6,1.7,0
								c0.4,0.6,9.6,14.9,9.6,20.3C60.4,60.9,55.7,65.6,50,65.6z M50,37.3c-2.9,4.7-8.4,14.3-8.4,17.9c0,4.6,3.8,8.4,8.4,8.4
								s8.4-3.8,8.4-8.4C58.4,51.5,52.9,42,50,37.3z"/>
						</g>
					</g>
				</g>
			</g>
		</g>
	</g>
</g>
<g>
	<g>
		<g>
			<g>
				<g>
					<g>
						<g>
							<path class="st1" d="M83.2,49.8l-5.8,5.8c-0.3,0.3-0.1,0.9,0.4,0.9h11.6c0.4,0,0.7-0.5,0.4-0.9l-5.8-5.8
								C83.7,49.6,83.4,49.6,83.2,49.8z"/>
						</g>
					</g>
				</g>
			</g>
		</g>
	</g>
	<g>
		<g>
			<g>
				<g>
					<g>
						<g>
							<path class="st1" d="M10.3,44.6l5.6,5.6c0.2,0.2,0.6,0.2,0.8,0l5.6-5.6c0.4-0.4,0.1-1-0.4-1H10.7
								C10.2,43.6,9.9,44.2,10.3,44.6z"/>
						</g>
					</g>
				</g>
			</g>
		</g>
	</g>
</g>
</svg>
