<?xml version="1.0" encoding="utf-8"?>
<!-- Generator: Adobe Illustrator 23.0.1, SVG Export Plug-In . SVG Version: 6.00 Build 0)  -->
<svg version="1.1" id="Слой_1" xmlns="http://www.w3.org/2000/svg" xmlns:xlink="http://www.w3.org/1999/xlink" x="0px" y="0px"
	 viewBox="0 0 100 100" style="enable-background:new 0 0 100 100;" xml:space="preserve">
<style type="text/css">
	.st0{fill:#D9E7AF;}
	.st1{fill:#FFFFFF;}
</style>
<g>
	<g>
		<g>
			<g>
				<g>
					<g>
						<g>
							<g>
								<g>
									<path class="st0" d="M64.9,73.4H35.1c-0.3,0-0.7-0.2-0.8-0.5L19.4,47.2c-0.2-0.3-0.2-0.7,0-1l14.9-25.8
										c0.2-0.3,0.5-0.5,0.8-0.5h29.7c0.3,0,0.7,0.2,0.8,0.5l14.9,25.8c0.2,0.3,0.2,0.7,0,1L65.7,72.9
										C65.5,73.2,65.2,73.4,64.9,73.4z M35.7,71.5h28.6l14.3-24.8L64.3,21.9H35.7L21.4,46.7L35.7,71.5z"/>
								</g>
							</g>
						</g>
					</g>
				</g>
			</g>
		</g>
	</g>
</g>
<g>
	<g>
		<g>
			<g>
				<g>
					<g>
						<g>
							<g>
								<path class="st1" d="M99.2,46.9L81.7,16.6c0.5-0.6,0.8-1.4,0.8-2.2c0-1.9-1.5-3.4-3.4-3.4c-1.9,0-3.4,1.5-3.4,3.4
									c0,1.9,1.5,3.4,3.4,3.4c0.3,0,0.6-0.1,0.9-0.1l17.1,29.7L73.3,88.7c-0.3,0.5-0.1,1.1,0.4,1.3c0.2,0.1,0.3,0.1,0.5,0.1
									c0.3,0,0.7-0.2,0.8-0.5l24.2-41.8C99.3,47.6,99.3,47.2,99.2,46.9z"/>
							</g>
						</g>
					</g>
				</g>
			</g>
		</g>
	</g>
	<g>
		<g>
			<g>
				<g>
					<g>
						<g>
							<g>
								<path class="st1" d="M61.1,85.7c-1.6,0-2.9,1.1-3.3,2.5H26.4L2.5,46.9c-0.3-0.5-0.9-0.6-1.3-0.4c-0.5,0.3-0.6,0.9-0.4,1.3
									L25,89.7c0.2,0.3,0.5,0.5,0.8,0.5h32.1c0.4,1.3,1.7,2.3,3.2,2.3c1.9,0,3.4-1.5,3.4-3.4S63,85.7,61.1,85.7z"/>
							</g>
						</g>
					</g>
				</g>
			</g>
		</g>
	</g>
	<g>
		<g>
			<g>
				<g>
					<g>
						<g>
							<g>
								<path class="st1" d="M7.3,40.6c1.9,0,3.4-1.5,3.4-3.4c0-0.8-0.3-1.6-0.8-2.2L26.4,6.5h47.8c0.5,0,1-0.4,1-1s-0.4-1-1-1H25.8
									c-0.3,0-0.7,0.2-0.8,0.5L8.3,34c-0.3-0.1-0.6-0.2-1-0.2c-1.9,0-3.4,1.5-3.4,3.4C3.9,39.1,5.5,40.6,7.3,40.6z"/>
							</g>
						</g>
					</g>
				</g>
			</g>
		</g>
	</g>
</g>
<g>
	<g>
		<g>
			<g>
				<g>
					<g>
						<g>
							<path class="st0" d="M49.7,30.6l-4.8,4.8c-0.3,0.3-0.1,0.7,0.3,0.7h9.6c0.4,0,0.6-0.4,0.3-0.7l-4.8-4.8
								C50.1,30.4,49.9,30.4,49.7,30.6z"/>
						</g>
					</g>
				</g>
			</g>
		</g>
	</g>
	<g>
		<g>
			<g>
				<g>
					<g>
						<g>
							<path class="st0" d="M50,63.3c-0.6,0-1-0.4-1-1V32.1c0-0.6,0.4-1,1-1s1,0.4,1,1v30.2C51,62.9,50.6,63.3,50,63.3z"/>
						</g>
					</g>
				</g>
			</g>
		</g>
	</g>
</g>
</svg>
